# xmcd
#
# Track frame offsets:
#  150
#  6616
#  17777
#  33296
#  47328
#  57445
#  73157
#  85326
#  101476
#  112490
#  121935
#  136388
#  147398
#  162848
#  173865
#  184438
#  201363
#  215475
#  230692
#
# Disc length: 3211 seconds
#
# Revision: 0
# Processed by: cddbd v1.5.1PL0 Copyright (c) Steve Scherf et al.
# Submitted via: Collectorz.com_Music_Collector 6.9
#
DISCID=230c8913
DTITLE=Carlos Guitarlos - Hell Can Wait
DYEAR=2005
DGENRE=Blues
TTITLE0=Love Me From The Start
TTITLE1=Got No Time
TTITLE2=Get Back
TTITLE3=Shake My Blue
TTITLE4=Save A dance
TTITLE5=I Found Someone
TTITLE6=Here I Come
TTITLE7=Drinkin' Again
TTITLE8=Say You Love Me
TTITLE9=Keep Me Satisfied
TTITLE10=Woman On My Mind
TTITLE11=My Old Dead Body
TTITLE12=Baby's Coming Back Home
TTITLE13=Shake With My Baby
TTITLE14=Making Better
TTITLE15=I Feel Love
TTITLE16=Sure Is Good
TTITLE17=Hole In My Pocket
TTITLE18=I've Been Dead Since You've Been Gone
EXTD=
EXTT0=
EXTT1=
EXTT2=
EXTT3=
EXTT4=
EXTT5=
EXTT6=
EXTT7=
EXTT8=
EXTT9=
EXTT10=
EXTT11=
EXTT12=
EXTT13=
EXTT14=
EXTT15=
EXTT16=
EXTT17=
EXTT18=
PLAYORDER=
